HIERARCHY
ROOT pelvis
{
  OFFSET 0 100 0
  CHANNELS 6 Xposition Yposition Zposition Zrotation Xrotation Yrotation
  JOINT pelvis_right_femur
  {
    OFFSET -10.78128 -3.44521 -0.5502486
    CHANNELS 3 Zrotation Xrotation Yrotation
    JOINT right_femur_tibia
    {
      OFFSET -0.8047443 -44.0398 -0.1307829
      CHANNELS 3 Zrotation Xrotation Yrotation
      JOINT right_tibia_foot
      {
        OFFSET 3.006224 -47.83518 -5
        CHANNELS 3 Zrotation Xrotation Yrotation
        End Site
        {
          OFFSET 0 -5 15
        }
      }
    }
  }
  JOINT pelvis_left_femur
  {
    OFFSET 10.78128 -3.44521 -0.5502486
    CHANNELS 3 Zrotation Xrotation Yrotation
    JOINT left_femur_tibia
    {
      OFFSET 0.8047443 -44.0398 -0.1307829
      CHANNELS 3 Zrotation Xrotation Yrotation
      JOINT left_tibia_foot
      {
        OFFSET -4.370144 -48.10324 -4.275266
        CHANNELS 3 Zrotation Xrotation Yrotation
        End Site
        {
          OFFSET 0 -5 15
        }
      }
    }
  }
  JOINT pelvis_spine1
  {
    OFFSET 0 6.468898 -3.129235
    CHANNELS 3 Zrotation Xrotation Yrotation
    JOINT spine1
    {
      OFFSET 0 23.15396 4.99043
      CHANNELS 3 Zrotation Xrotation Yrotation
      JOINT spine2
      {
        OFFSET 0 20.79997 -5.064912
        CHANNELS 3 Zrotation Xrotation Yrotation
        JOINT neck
        {
          OFFSET 0 14.38658 9.616178
          CHANNELS 3 Zrotation Xrotation Yrotation
          End Site
          {
            OFFSET 0 20 0
          }
        }
      }
      JOINT right_manubrium
      {
        OFFSET -5.722621 16.35077 3.967754
        CHANNELS 3 Zrotation Xrotation Yrotation
        JOINT right_clavicle
        {
          OFFSET -13.16364 1.694482 -4.693211
          CHANNELS 3 Zrotation Xrotation Yrotation
          JOINT right_humerus
          {
            OFFSET -28.5034 -0.3100689 -2.792744
            CHANNELS 3 Zrotation Xrotation Yrotation
            JOINT right_radius
            {
              OFFSET -25.15693 0.02248979 -1.271978
              CHANNELS 3 Zrotation Xrotation Yrotation
              End Site
              {
                OFFSET -15 0 0
              }
            }
          }
        }
      }
      JOINT left_manubrium
      {
        OFFSET 5.722621 16.35077 3.967754
        CHANNELS 3 Zrotation Xrotation Yrotation
        JOINT left_clavicle
        {
          OFFSET 13.16364 1.694482 -4.693211
          CHANNELS 3 Zrotation Xrotation Yrotation
          JOINT left_humerus
          {
            OFFSET 29.39168 -1.063119 -2.237045
            CHANNELS 3 Zrotation Xrotation Yrotation
            JOINT left_radius
            {
              OFFSET 24.59957 -0.9528479 0.9047498
              CHANNELS 3 Zrotation Xrotation Yrotation
              End Site
              {
                OFFSET 15 -0 -0
              }
            }
          }
        }
      }
    }
  }
}
MOTION
Frames: 7
Frame Time: 0.0416666666667
401.3606 103.4338 3074.674 0.7227579 -4.954954 6.026511 3.618985 17.002 3.566193 -0 13.04117 -0 -1.737236 -15.42707 -0.5378849 2.22822 -27.2092 -2.941719 -0 18.79224 -0 -5.381671 -6.664881 19.44868 -1.964093 1.723307 3.914271 -0.1826225 7.578978 -3.083117 3.179549 25.86383 4.085257 1.464882 -16.4445 7.633596 -1.185309 -16.69909 9.478635 87.2767 21.19788 -9.53594 -0 0 13.84786 -19.75525 7.030614 10.65169 4.689209 -15.44282 -3.037901 -91.22505 26.16248 16.40276 0 0 -6.656202 1.074277 11.65013 11.03311
403.0251 102.4837 3081.182 0.8224313 -4.525927 5.544138 2.525087 18.7533 3.316225 -0 17.08123 -0 -1.412079 -13.63229 -0.01531686 1.111583 -26.8942 -3.836801 -0 16.16253 -0 -5.003973 -6.941144 19.60688 -1.967712 1.642222 3.880201 -0.1955063 7.679924 -3.012965 3.105621 25.88833 4.220295 1.551755 -16.78753 7.66943 -1.269913 -16.97543 9.492518 87.28886 21.11937 -9.26356 -0 0 13.79033 -19.9619 6.901898 10.96174 4.700051 -15.53624 -3.067148 -91.52747 25.96491 16.89103 0 0 -6.30984 1.44498 11.93279 10.70285
404.8115 101.8999 3088.084 1.292379 -4.675783 5.264461 1.284154 19.55622 3.153034 -0 22.85 -0 -1.213738 -9.867761 0.03164913 -0.6132428 -25.11112 -5.104852 -0 16.48133 -0 -4.636395 -7.438787 19.76152 -1.970655 1.546278 3.785487 -0.1863098 7.818296 -3.025741 3.028377 25.90219 4.361084 1.630712 -17.13639 7.715221 -1.339679 -17.17537 9.503137 87.44868 21.03377 -9.258372 -0 0 13.50067 -20.11629 6.820031 11.1937 4.719502 -15.76886 -3.153803 -91.60281 25.76749 17.07087 0 0 -6.313757 1.906242 12.22817 10.30188
406.6688 101.8351 3095.199 1.93753 -5.208758 5.296086 0.1844246 18.93926 3.09589 -0 30.41189 -0 -1.09416 -4.954443 -0.3621298 -2.460611 -22.19141 -6.420195 -0 18.1699 -0 -4.063705 -8.069127 19.704 -1.968818 1.438503 3.637041 -0.156387 7.988293 -3.115757 2.949746 25.9084 4.502656 1.700451 -17.47925 7.767217 -1.39621 -17.29525 9.514391 87.74842 20.93695 -9.512654 -0 0 12.98968 -20.2159 6.779852 11.34233 4.746997 -16.1326 -3.296567 -91.46145 25.57007 16.95227 0 0 -6.665846 2.452704 12.53949 9.831881
408.5461 102.3677 3102.25 2.544742 -5.870116 5.728116 -0.5318948 16.39762 3.078914 -0 39.26579 -0 -0.9904872 0.1245772 -1.136622 -4.066346 -18.27316 -7.514815 -0 19.83619 -0 -3.162298 -8.80851 19.30965 -1.958879 1.320277 3.43887 -0.1054763 8.18148 -3.280491 2.870231 25.90845 4.642925 1.76089 -17.80855 7.822656 -1.442545 -17.329 9.528222 88.18444 20.82433 -10.02698 -0 0 12.25886 -20.25804 6.775058 11.40165 4.785124 -16.6245 -3.493685 -91.10439 25.36966 16.53029 0 0 -7.382499 3.085626 12.86902 9.287532
410.3839 103.4268 3108.949 2.918493 -6.477304 6.564468 -0.7098578 11.67751 2.964302 -0 47.84365 -0 -0.9899885 4.337598 -2.166281 -5.170629 -13.51563 -8.202523 -0 20.47192 -0 -2.028525 -9.724058 18.63579 -1.937926 1.190598 3.194446 -0.03277053 8.387295 -3.518831 2.788861 25.90136 4.782622 1.813261 -18.12081 7.879567 -1.483572 -17.27155 9.544952 88.75417 20.68971 -10.80508 -0 0 11.30804 -20.24203 6.79855 11.36713 4.839671 -17.2447 -3.742236 -90.5291 25.15891 15.79458 0 0 -8.493593 3.810214 13.21636 8.659368
412.1252 104.7385 3115.117 2.935672 -6.988056 7.681983 -0.3917266 5.214033 2.653166 -0 53.61385 -0 -1.290504 6.725749 -3.24782 -5.634493 -8.290874 -8.460617 -0 19.66458 -0 -1.065224 -10.92175 17.85581 -1.902982 1.045196 2.912748 0.06048113 8.594526 -3.825285 2.703324 25.88212 4.924766 1.860496 -18.41648 7.936008 -1.526622 -17.12854 9.564374 89.44567 20.52401 -11.83474 -0 0 10.15791 -20.17577 6.843015 11.2431 4.918582 -17.98809 -4.035473 -89.74904 24.92362 14.75967 0 0 -10.01616 4.626712 13.57539 7.942375
